<?xml version="1.0" encoding="utf-8"?>
<!-- Generator: Adobe Illustrator 16.0.3, SVG Export Plug-In . SVG Version: 6.00 Build 0)  -->
<!DOCTYPE svg PUBLIC "-//W3C//DTD SVG 1.1//EN" "http://www.w3.org/Graphics/SVG/1.1/DTD/svg11.dtd">
<svg version="1.1" xmlns="http://www.w3.org/2000/svg" xmlns:xlink="http://www.w3.org/1999/xlink" x="0px" y="0px" width="200px"
	 height="200px" viewBox="0 0 200 200" enable-background="new 0 0 200 200" xml:space="preserve">
<g id="Capa_1">
	<g>
		<path d="M21.304,36.332c1.917,0,3.771,0.156,5.563,0.469c1.792,0.313,3.563,0.886,5.314,1.719l-1.375,4.751
			c-1.792-0.833-3.407-1.427-4.845-1.782c-1.438-0.354-2.907-0.531-4.407-0.531c-2.375,0-4.251,0.521-5.626,1.563
			c-1.375,1.042-2.063,2.501-2.063,4.376c0,1.584,0.51,2.855,1.531,3.813c1.021,0.959,2.698,1.792,5.033,2.5l3.938,1.25
			c3.584,1.125,6.116,2.657,7.596,4.595c1.479,1.938,2.219,4.116,2.219,6.532c0,1.709-0.344,3.262-1.031,4.657
			c-0.688,1.397-1.647,2.585-2.875,3.563c-1.23,0.979-2.678,1.73-4.345,2.25c-1.667,0.521-3.501,0.781-5.501,0.781
			c-2,0-4.032-0.178-6.095-0.531s-4.116-1.01-6.158-1.969l1.375-4.688c1.792,0.875,3.542,1.522,5.251,1.938
			c1.708,0.417,3.501,0.625,5.376,0.625c2.25,0,4.167-0.521,5.751-1.563c1.583-1.042,2.375-2.584,2.375-4.626
			c0-0.75-0.115-1.448-0.344-2.094c-0.229-0.646-0.625-1.26-1.188-1.844c-0.563-0.583-1.323-1.125-2.282-1.625
			c-0.959-0.5-2.167-0.979-3.625-1.438l-3.938-1.25c-2.875-0.916-5.085-2.167-6.626-3.751c-1.542-1.583-2.313-3.729-2.313-6.438
			c0-3.459,1.135-6.199,3.407-8.221C13.667,37.342,16.969,36.332,21.304,36.332z"/>
		<path d="M56.186,51.022h-8.627v17.066c0,1.459,0.364,2.438,1.094,2.938c0.729,0.5,1.677,0.75,2.844,0.75
			c0.833,0,1.75-0.094,2.751-0.281c1-0.188,1.875-0.406,2.625-0.656l0.875,4.188c-0.834,0.334-1.897,0.625-3.188,0.875
			c-1.292,0.25-2.647,0.375-4.063,0.375c-2.917,0-5.043-0.635-6.376-1.907c-1.334-1.271-2-3.115-2-5.532V51.022h-4.375v-4.126h4.375
			v-9.377h5.439v9.377h8.627V51.022z"/>
		<path d="M83.191,46.896h5.501v29.381h-4.313l-0.75-3.688h-0.25c-1.084,1.209-2.428,2.219-4.032,3.032
			c-1.605,0.813-3.47,1.219-5.595,1.219c-3.042,0-5.512-0.864-7.408-2.594C64.447,72.517,63.5,69.901,63.5,66.4V46.896h5.501v18.816
			c0,1.25,0.156,2.313,0.469,3.188c0.313,0.875,0.729,1.573,1.25,2.094c0.521,0.521,1.135,0.896,1.844,1.125
			c0.708,0.229,1.479,0.344,2.313,0.344c1.666,0,3.167-0.354,4.501-1.063c1.333-0.708,2.604-1.688,3.813-2.938V46.896z"/>
		<path d="M116.698,31.893h5.501v44.384h-4.626l-0.688-3.25h-0.188c-1.293,1.334-2.595,2.303-3.907,2.907s-2.97,0.906-4.97,0.906
			c-1.585,0-3.116-0.313-4.595-0.938c-1.48-0.625-2.804-1.563-3.97-2.813c-1.167-1.25-2.105-2.823-2.813-4.72
			c-0.709-1.896-1.063-4.136-1.063-6.72c0-2.292,0.302-4.376,0.906-6.251c0.604-1.875,1.469-3.479,2.595-4.813
			c1.125-1.333,2.5-2.354,4.126-3.063c1.625-0.708,3.479-1.063,5.563-1.063c1.541,0,3.011,0.24,4.407,0.719
			c1.396,0.48,2.635,1.199,3.72,2.157V31.893z M116.698,53.96c-1.96-2.208-4.272-3.313-6.939-3.313
			c-1.125,0-2.219,0.198-3.282,0.594c-1.063,0.396-2,1.032-2.813,1.907s-1.47,2-1.97,3.375c-0.5,1.375-0.75,3.022-0.75,4.939
			c0,2,0.229,3.699,0.688,5.095c0.458,1.396,1.073,2.542,1.845,3.438c0.771,0.897,1.646,1.553,2.625,1.969
			c0.979,0.417,1.97,0.625,2.97,0.625c3.126,0,5.667-1.354,7.627-4.063V53.96z"/>
		<path d="M134.326,39.332c-0.96,0-1.782-0.322-2.47-0.969c-0.688-0.646-1.031-1.448-1.031-2.407c0-0.958,0.344-1.771,1.031-2.438
			c0.688-0.667,1.51-1,2.47-1c0.916,0,1.729,0.334,2.438,1c0.708,0.667,1.063,1.479,1.063,2.438c0,0.959-0.354,1.761-1.063,2.407
			C136.055,39.01,135.242,39.332,134.326,39.332z M131.575,76.277V46.896h5.501v29.381H131.575z"/>
		<path d="M171.083,62.212h-21.066v0.25c0,3.25,0.885,5.751,2.656,7.501c1.771,1.75,4.178,2.625,7.221,2.625
			c1.583,0,2.99-0.125,4.22-0.375c1.229-0.25,2.572-0.666,4.032-1.25l1.125,4.063c-1.209,0.542-2.637,0.98-4.282,1.313
			c-1.646,0.333-3.407,0.5-5.282,0.5c-2.126,0-4.116-0.292-5.97-0.875c-1.855-0.583-3.491-1.49-4.907-2.719
			c-1.418-1.229-2.532-2.803-3.345-4.72c-0.813-1.917-1.219-4.209-1.219-6.876c0-2.292,0.344-4.376,1.031-6.251
			s1.656-3.47,2.906-4.782c1.251-1.313,2.761-2.333,4.532-3.063c1.771-0.729,3.761-1.094,5.971-1.094
			c1.875,0,3.572,0.313,5.095,0.938c1.521,0.625,2.822,1.5,3.907,2.625c1.083,1.125,1.916,2.48,2.5,4.063
			c0.583,1.584,0.875,3.335,0.875,5.251V62.212z M165.395,58.273c0-1.083-0.136-2.094-0.406-3.032
			c-0.271-0.938-0.688-1.76-1.25-2.469c-0.563-0.708-1.282-1.271-2.157-1.688c-0.875-0.416-1.938-0.625-3.188-0.625
			c-2.293,0-4.157,0.729-5.596,2.188c-1.438,1.459-2.323,3.375-2.656,5.751L165.395,58.273z"/>
		<path d="M194.088,52.397c-1.375-0.667-2.625-1.125-3.75-1.375c-1.126-0.25-2.251-0.375-3.376-0.375c-2,0-3.48,0.365-4.438,1.094
			c-0.959,0.73-1.438,1.699-1.438,2.907c0,0.875,0.333,1.636,1,2.282c0.666,0.646,2.063,1.281,4.188,1.906l1.875,0.563
			c2.792,0.834,4.907,1.907,6.346,3.219c1.438,1.313,2.156,3.094,2.156,5.345c0,2.668-0.99,4.813-2.97,6.439
			s-4.741,2.438-8.282,2.438c-1.876,0-3.679-0.167-5.408-0.5s-3.219-0.791-4.47-1.375l1.313-4.313
			c1.208,0.584,2.521,1.053,3.938,1.406c1.416,0.354,2.854,0.531,4.313,0.531c1.875,0,3.364-0.333,4.47-1
			c1.104-0.666,1.656-1.771,1.656-3.313c0-1.333-0.479-2.282-1.438-2.845c-0.96-0.563-2.335-1.114-4.126-1.656l-1.938-0.625
			c-2.709-0.875-4.72-1.969-6.032-3.282c-1.313-1.313-1.969-3.01-1.969-5.095c0-1.25,0.271-2.396,0.813-3.438
			c0.541-1.041,1.281-1.917,2.219-2.625c0.938-0.708,2.053-1.26,3.345-1.657c1.291-0.396,2.708-0.594,4.251-0.594
			c1.458,0,2.969,0.136,4.532,0.406c1.563,0.271,3.052,0.719,4.47,1.344L194.088,52.397z"/>
	</g>
	<g>
		<path d="M8.548,95.017h12.378c2.041,0,3.896,0.262,5.563,0.782c1.667,0.521,3.104,1.292,4.313,2.313
			c1.208,1.021,2.146,2.272,2.813,3.751c0.666,1.479,1,3.179,1,5.095c0,2.085-0.354,3.887-1.063,5.407
			c-0.709,1.522-1.709,2.782-3,3.782c-1.292,1-2.813,1.75-4.563,2.251c-1.75,0.5-3.688,0.75-5.814,0.75h-5.876V134.4H8.548V95.017z
			 M14.299,114.459h3.563c1.542,0,2.979-0.104,4.313-0.313c1.333-0.208,2.469-0.583,3.407-1.126
			c0.938-0.541,1.677-1.302,2.219-2.281c0.542-0.979,0.813-2.22,0.813-3.72c0-1.375-0.261-2.531-0.782-3.47
			c-0.521-0.938-1.198-1.697-2.031-2.281c-0.834-0.583-1.792-1-2.876-1.25c-1.084-0.25-2.188-0.376-3.313-0.376h-5.313V114.459z"/>
		<path d="M40.367,134.4V105.02h4.126l0.938,5.876c0.708-1.875,1.875-3.396,3.5-4.563c1.625-1.166,3.501-1.75,5.626-1.75
			c1.083,0,1.979,0.084,2.688,0.25c0.708,0.167,1.354,0.375,1.938,0.625l-1.063,4.813c-0.5-0.25-1.053-0.458-1.656-0.625
			c-0.605-0.166-1.324-0.25-2.157-0.25c-1.209,0-2.324,0.209-3.345,0.625c-1.021,0.417-1.917,1.042-2.688,1.875
			c-0.771,0.834-1.375,1.866-1.813,3.095c-0.438,1.229-0.656,2.636-0.656,4.22v15.19H40.367z"/>
		<path d="M89.127,119.397c0,2.459-0.375,4.657-1.125,6.595c-0.75,1.938-1.782,3.574-3.094,4.907
			c-1.313,1.335-2.845,2.345-4.595,3.032c-1.75,0.688-3.647,1.031-5.689,1.031c-2.042,0-3.928-0.323-5.657-0.969
			c-1.73-0.646-3.23-1.604-4.501-2.876c-1.272-1.271-2.272-2.833-3-4.688c-0.73-1.854-1.094-3.99-1.094-6.407
			c0-2.459,0.375-4.646,1.125-6.564c0.75-1.916,1.781-3.531,3.094-4.845c1.313-1.313,2.844-2.313,4.595-3s3.646-1.031,5.688-1.031
			c2.042,0,3.928,0.313,5.658,0.938c1.729,0.625,3.229,1.563,4.501,2.813c1.271,1.251,2.271,2.804,3,4.657
			C88.762,114.845,89.127,116.98,89.127,119.397z M83.376,119.71c0-1.959-0.25-3.626-0.75-5.001c-0.5-1.376-1.157-2.501-1.969-3.376
			c-0.813-0.875-1.741-1.51-2.782-1.906c-1.042-0.396-2.105-0.595-3.188-0.595c-1.084,0-2.147,0.168-3.188,0.501
			c-1.042,0.334-1.959,0.917-2.75,1.75c-0.792,0.834-1.428,1.948-1.907,3.345c-0.479,1.396-0.719,3.156-0.719,5.282
			c0,1.959,0.25,3.637,0.75,5.032c0.5,1.396,1.156,2.531,1.969,3.407c0.813,0.875,1.739,1.521,2.782,1.938
			c1.041,0.417,2.104,0.625,3.188,0.625c1.083,0,2.146-0.177,3.188-0.531c1.041-0.354,1.958-0.958,2.75-1.813
			c0.791-0.854,1.427-1.979,1.907-3.376C83.136,123.597,83.376,121.835,83.376,119.71z"/>
	</g>
	<polyline fill="none" stroke="#000000" stroke-width="3" stroke-miterlimit="10" points="94.625,116.115 120.707,116.115 
		129.51,96.833 140.797,134.4 152.098,115.414 186.847,115.438 	"/>
</g>
<g id="Capa_2">
	<g>
	</g>
	<g>
	</g>
	<g>
	</g>
	<g>
	</g>
	<g>
	</g>
	<g>
	</g>
</g>
</svg>
